<svg xmlns="http://www.w3.org/2000/svg" width="54" height="54" viewBox="0 0 54 54">
  <g id="Group_17" data-name="Group 17" transform="translate(-590 -1257)">
    <circle id="Ellipse_2" data-name="Ellipse 2" cx="27" cy="27" r="27" transform="translate(590 1257)" fill="#ca213f"/>
    <g id="letter" transform="translate(603.296 1270.297)">
      <path id="Path_9" data-name="Path 9" d="M336.014,363.438a.4.4,0,0,0,.257-.71l-6.405-5.333a.4.4,0,1,0-.514.617l6.405,5.333A.4.4,0,0,0,336.014,363.438Zm0,0" transform="translate(-311.814 -338.424)" fill="#fff"/>
      <path id="Path_10" data-name="Path 10" d="M52.851,357.394l-6.405,5.333a.4.4,0,0,0,.514.617l6.405-5.333a.4.4,0,1,0-.514-.617Zm0,0" transform="translate(-43.855 -338.424)" fill="#fff"/>
      <path id="Path_11" data-name="Path 11" d="M27.048,9.9a.4.4,0,0,0-.145-.309L24.075,7.236V4.658A3.319,3.319,0,0,0,20.76,1.343H17l-.181-.151a5.143,5.143,0,0,0-6.583,0l-.181.151H9.239a.4.4,0,0,0,0,.8H20.76a2.515,2.515,0,0,1,2.512,2.512V7.423h0v4.765l-6.97,5.8a4.339,4.339,0,0,1-5.555,0l-6.97-5.8V7.423h0V4.658A2.515,2.515,0,0,1,6.289,2.146H7.632a.4.4,0,1,0,0-.8H6.289A3.319,3.319,0,0,0,2.973,4.658V7.236L.145,9.592A.4.4,0,0,0,0,9.9s0,0,0,0v14.23a2.924,2.924,0,0,0,2.921,2.921H20.915a.4.4,0,0,0,0-.8H2.921A2.12,2.12,0,0,1,.8,24.131V10.757l2.316,1.928h0l7.113,5.922a5.143,5.143,0,0,0,6.583,0l7.112-5.921,0,0,2.314-1.927V24.13a2.12,2.12,0,0,1-2.118,2.118h-1.6a.4.4,0,0,0,0,.8h1.6a2.925,2.925,0,0,0,2.921-2.921V9.9S27.048,9.9,27.048,9.9ZM15.617,1.343H11.431A4.341,4.341,0,0,1,15.617,1.343ZM2.973,8.282v3.237L1.03,9.9Zm21.1,3.236V8.282L26.019,9.9Zm0,0" transform="translate(0 -0.001)" fill="#fff"/>
      <path id="Path_12" data-name="Path 12" d="M149.044,210.625H137.261a.4.4,0,1,0,0,.8h11.783a.4.4,0,1,0,0-.8Zm0,0" transform="translate(-129.629 -199.497)" fill="#fff"/>
      <path id="Path_13" data-name="Path 13" d="M149.044,254.781H137.261a.4.4,0,1,0,0,.8h11.783a.4.4,0,1,0,0-.8Zm0,0" transform="translate(-129.629 -241.32)" fill="#fff"/>
      <path id="Path_14" data-name="Path 14" d="M149.044,122.309H137.261a.4.4,0,1,0,0,.8h11.783a.4.4,0,1,0,0-.8Zm0,0" transform="translate(-129.629 -115.847)" fill="#fff"/>
      <path id="Path_15" data-name="Path 15" d="M307.476,166.469h-2.946a.4.4,0,0,0,0,.8h2.946a.4.4,0,0,0,0-.8Zm0,0" transform="translate(-288.061 -157.674)" fill="#fff"/>
      <path id="Path_16" data-name="Path 16" d="M137.261,167.272h7.5a.4.4,0,0,0,0-.8h-7.5a.4.4,0,1,0,0,.8Zm0,0" transform="translate(-129.629 -157.674)" fill="#fff"/>
    </g>
  </g>
</svg>
