<svg xmlns="http://www.w3.org/2000/svg" width="36.513" height="36.513" viewBox="0 0 36.513 36.513">
  <path id="facebook" d="M5.349,36.513h11.91V23.534H12.979V19.255h4.279V13.906a5.355,5.355,0,0,1,5.349-5.349h5.349v4.279H23.676a2.142,2.142,0,0,0-2.139,2.139v4.279h6.225l-.713,4.279H21.537V36.513h9.627a5.355,5.355,0,0,0,5.349-5.349V5.349A5.355,5.355,0,0,0,31.165,0H5.349A5.355,5.355,0,0,0,0,5.349V31.165A5.355,5.355,0,0,0,5.349,36.513ZM2.139,5.349A3.213,3.213,0,0,1,5.349,2.139H31.165a3.213,3.213,0,0,1,3.209,3.209V31.165a3.213,3.213,0,0,1-3.209,3.209H23.676v-8.7h5.185l1.426-8.558H23.676V14.976h6.418V6.418H22.607a7.5,7.5,0,0,0-7.488,7.488v3.209H10.84v8.558h4.279v8.7H5.349a3.213,3.213,0,0,1-3.209-3.209Zm0,0" fill="#9e9e9e"/>
</svg>
