<svg id="linkedin" xmlns="http://www.w3.org/2000/svg" width="38.08" height="38.08" viewBox="0 0 38.08 38.08">
  <path id="Path_62" data-name="Path 62" d="M32.5,0H5.578A5.584,5.584,0,0,0,0,5.578V32.5A5.584,5.584,0,0,0,5.578,38.08H32.5A5.584,5.584,0,0,0,38.08,32.5V5.578A5.584,5.584,0,0,0,32.5,0Zm3.347,32.5A3.351,3.351,0,0,1,32.5,35.849H5.578A3.351,3.351,0,0,1,2.231,32.5V5.578A3.351,3.351,0,0,1,5.578,2.231H32.5a3.351,3.351,0,0,1,3.347,3.347Zm0,0" fill="#9e9e9e"/>
  <path id="Path_63" data-name="Path 63" d="M91,225.767h6.694V210H91Zm2.231-13.536h2.231v11.3H93.231Zm0,0" transform="translate(-84.232 -194.381)" fill="#9e9e9e"/>
  <path id="Path_64" data-name="Path 64" d="M219.931,210h-.006a6.681,6.681,0,0,0-2.231.379V210H211v15.767h6.694v-7.958a1.116,1.116,0,0,1,2.231,0v7.958h6.694v-8.725A7.012,7.012,0,0,0,219.931,210Zm4.456,13.536h-2.231v-5.727a3.347,3.347,0,0,0-6.694,0v5.727h-2.231v-11.3h2.231v2.233l1.786-1.341a4.423,4.423,0,0,1,2.677-.892h0a4.77,4.77,0,0,1,4.458,4.811Zm0,0" transform="translate(-195.307 -194.381)" fill="#9e9e9e"/>
  <path id="Path_65" data-name="Path 65" d="M91,96.694h6.694V90H91Zm2.231-4.462h2.231v2.231H93.231Zm0,0" transform="translate(-84.232 -83.306)" fill="#9e9e9e"/>
</svg>
