<svg xmlns="http://www.w3.org/2000/svg" width="41.941" height="34.327" viewBox="0 0 41.941 34.327">
  <path id="twitter" d="M41.941,4.585c-2.638.122-2.581.112-2.879.137L40.625.259s-4.877,1.794-6.114,2.115a9.785,9.785,0,0,0-11.525-.927A7.982,7.982,0,0,0,19.15,9.655,21.289,21.289,0,0,1,5.358,1.89L4.2.5,3.336,2.088A9.6,9.6,0,0,0,2.314,8.547a9.28,9.28,0,0,0,.9,2.521l-.993-.385L2.1,12.343A8.849,8.849,0,0,0,3.6,17.6a9.354,9.354,0,0,0,1.169,1.442l-.513-.079.626,1.9a9.238,9.238,0,0,0,4.749,5.5c-2.215.94-4,1.539-6.944,2.507L0,29.76l2.485,1.359a26.083,26.083,0,0,0,7.6,2.767c7.353,1.153,15.632.214,21.206-4.806,4.694-4.228,6.235-10.242,5.915-16.5a3.91,3.91,0,0,1,.731-2.546C38.981,8.644,41.935,4.594,41.941,4.585ZM35.975,8.562A6.368,6.368,0,0,0,34.757,12.7c.323,6.313-1.395,11.209-5.106,14.551-4.335,3.9-11.327,5.437-19.182,4.2a19.023,19.023,0,0,1-4.11-1.221,65.169,65.169,0,0,0,7.444-3.06L18.1,25.147l-4.739-.3a6.7,6.7,0,0,1-5.322-3.032,8.5,8.5,0,0,0,1.8-.3l4.52-1.259L9.8,19.137a6.788,6.788,0,0,1-4.146-2.884,6.952,6.952,0,0,1-.9-1.983,11.377,11.377,0,0,0,1.849.3l4.218.417L7.481,12.375A7.035,7.035,0,0,1,4.815,4.962a24.449,24.449,0,0,0,17.229,7.416,14.551,14.551,0,0,0-.252-2.084,5.642,5.642,0,0,1,2.48-6.754,7.34,7.34,0,0,1,8.659.717,2.2,2.2,0,0,0,2.018.54,16.983,16.983,0,0,0,1.663-.506l-1.06,3.026H36.9C36.649,7.66,36.343,8.07,35.975,8.562Zm0,0" transform="translate(0 0)" fill="#9e9e9e"/>
</svg>
